<svg width="25" height="24" viewBox="0 0 25 24" fill="none" xmlns="http://www.w3.org/2000/svg">
<path fill-rule="evenodd" clip-rule="evenodd" d="M12.5091 1C6.42135 1 1.5 6.04165 1.5 12.2788C1.5 17.2646 4.65328 21.4849 9.02772 22.9786C9.57463 23.0909 9.77497 22.7359 9.77497 22.4373C9.77497 22.1758 9.75694 21.2796 9.75694 20.3457C6.69447 21.0181 6.05674 19.0012 6.05674 19.0012C5.56458 17.694 4.83536 17.3581 4.83536 17.3581C3.83302 16.6671 4.90837 16.6671 4.90837 16.6671C6.02024 16.7419 6.60366 17.8249 6.60366 17.8249C7.58775 19.5427 9.17352 19.0573 9.81147 18.7585C9.90251 18.0302 10.1943 17.5261 10.5042 17.246C8.06165 16.9845 5.4918 16.0136 5.4918 11.6812C5.4918 10.4487 5.92897 9.4404 6.62169 8.6562C6.51239 8.37616 6.12953 7.21818 6.73121 5.66833C6.73121 5.66833 7.66076 5.3695 9.75671 6.82608C10.6541 6.57919 11.5795 6.4536 12.5091 6.45254C13.4387 6.45254 14.3862 6.58339 15.2613 6.82608C17.3574 5.3695 18.287 5.66833 18.287 5.66833C18.8887 7.21818 18.5056 8.37616 18.3963 8.6562C19.1073 9.4404 19.5264 10.4487 19.5264 11.6812C19.5264 16.0136 16.9565 16.9657 14.4958 17.246C14.8969 17.6008 15.243 18.2729 15.243 19.3374C15.243 20.8499 15.225 22.0638 15.225 22.4371C15.225 22.7359 15.4255 23.0909 15.9722 22.9788C20.3467 21.4847 23.4999 17.2646 23.4999 12.2788C23.518 6.04165 18.5786 1 12.5091 1Z" fill="#24292F"/>
</svg>
