<svg width="64" height="64" viewBox="0 0 64 64" fill="none" xmlns="http://www.w3.org/2000/svg">
<path d="M41.8464 62.0768C33.9695 60.5999 30.031 60.5999 22.1541 62.0768C21.1695 62.0768 22.1541 48.7845 22.1541 48.7845L7.8772 38.9384V20.2307L22.1541 7.92299H42.3387L56.1234 20.2307V38.9384L41.8464 48.7845C41.8464 48.7845 42.831 62.0768 41.8464 62.0768Z" fill="white"/>
<path d="M31.9991 3.00011C47.0555 2.96964 54.8116 9.49412 57.5392 15.9264C60.1144 16.107 63.9999 18.9449 64 24.6024V24.6554C64.0001 26.5022 64.0001 28.1284 63.6702 29.448C63.3487 30.7337 62.7079 31.7574 61.4758 32.461C61.3551 37.5733 58.1302 41.3817 54.993 43.8914C53.9935 44.691 52.1735 45.813 50.3271 46.9499L50.2682 46.9861C48.419 48.1248 46.5368 49.2838 45.312 50.2024C44.6068 50.7313 44.3484 51.6593 44.4524 53.0039C44.5556 54.3396 45.0072 55.9377 45.5408 57.618C46.2656 59.9006 44.3279 62.0769 42.0461 62.0769C41.5133 62.0769 41.025 61.9586 40.6016 61.7001C40.1779 61.4415 39.8494 61.0611 39.6072 60.5853C38.6935 58.7902 38.2499 56.4794 38.0299 54.3722C37.8092 52.2579 37.8092 50.2981 37.8092 49.1824V49.1784C37.8092 47.4877 39.0403 46.2956 40.5902 45.2722C41.3785 44.7517 42.2924 44.2475 43.2508 43.7278L43.6021 43.5376C44.4596 43.0734 45.3505 42.5913 46.2414 42.0601C48.2679 40.8521 50.2527 39.4142 51.7324 37.4507C53.2042 35.4978 54.1933 33.0024 54.1933 29.6436C54.1933 23.1781 51.4261 18.4279 48.0626 15.5273C46.378 14.0747 44.5484 13.0899 42.8481 12.5846C41.1397 12.0769 39.6035 12.0643 38.4773 12.4946L38.4716 12.4967C35.9294 13.4322 33.9755 13.9183 32.0001 13.9183C30.0247 13.9183 28.0708 13.4322 25.5285 12.4967C24.4007 12.0816 22.8623 12.103 21.1529 12.6142C19.4516 13.123 17.6216 14.106 15.9371 15.5543C12.5738 18.4461 9.8069 23.1785 9.8069 29.6436C9.8069 33.0024 10.796 35.4978 12.2677 37.4507C13.7474 39.4142 15.7322 40.8521 17.7586 42.0601C18.6496 42.5913 19.5404 43.0735 20.3981 43.5376L20.7492 43.7278C21.7076 44.2475 22.6215 44.7517 23.4097 45.2722C24.9597 46.2956 26.1907 47.4877 26.1907 49.1784V49.1824C26.1907 50.2982 26.1907 52.2579 25.97 54.3722C25.75 56.4794 25.3064 58.7902 24.3927 60.5853C24.1505 61.0612 23.822 61.4415 23.3984 61.7001C22.9749 61.9586 22.4866 62.0769 21.9539 62.0769C19.6721 62.0769 17.7344 59.9006 18.4592 57.6181C18.9928 55.9378 19.4443 54.3397 19.5476 53.0039C19.6516 51.6593 19.3932 50.7313 18.688 50.2024C17.9265 49.6313 16.4853 48.7441 14.8785 47.755C14.6169 47.594 14.351 47.4303 14.0829 47.2648C12.1919 46.0977 10.2007 44.8465 9.00691 43.8914C5.86973 41.3817 2.64517 37.5733 2.52446 32.461C1.29216 31.7575 0.651308 30.7338 0.329822 29.448C-6.20035e-05 28.1286 -3.22926e-05 26.5027 6.57623e-07 24.6562V24.6024C6.57623e-07 18.8578 4.11001 16.4611 6.44097 15.9743C9.16321 9.52303 17.3402 3.03064 31.9991 3.00011Z" fill="#B5E0FF"/>
<path fill-rule="evenodd" clip-rule="evenodd" d="M36.9013 29.0376C33.9695 28.9724 34.4289 29.0924 32.0003 29.0924C29.5715 29.0924 30.031 28.9723 27.0989 29.0376C24.637 29.0925 22.6464 30.077 22.1542 32.9342C21.5633 36.3639 27.128 38.9386 32.0003 38.9386C36.8727 38.9386 42.4374 36.3639 41.8465 32.9342C41.3542 30.0771 39.3632 29.0925 36.9013 29.0376Z" fill="#B5E0FF"/>
<path d="M32 25.6464C30.4525 25.6464 29.3745 26.2236 28.6699 26.9748C27.9806 27.7096 27.6673 28.5897 27.5898 29.2014C27.5067 29.7986 27.6612 30.6492 28.3433 31.3478C29.0304 32.0516 30.1899 32.5387 32 32.5387C33.8101 32.5387 34.9696 32.0516 35.6568 31.3478C36.3389 30.6491 36.4933 29.7985 36.4103 29.2014C36.3327 28.5897 36.0194 27.7095 35.3302 26.9748C34.6256 26.2236 33.5476 25.6464 32 25.6464Z" fill="#053A60"/>
<path d="M43.9704 26.6321C41.8823 26.6321 40.1896 24.9394 40.1896 22.8512C40.1896 20.7631 41.8823 19.0703 43.9704 19.0703C46.0586 19.0703 47.7515 20.7631 47.7515 22.8512C47.7515 24.9394 46.0586 26.6321 43.9704 26.6321Z" fill="#053A60"/>
<path d="M20.0251 26.6321C17.937 26.6321 16.2443 24.9394 16.2443 22.8512C16.2443 20.7631 17.937 19.0703 20.0251 19.0703C22.1132 19.0703 23.8062 20.7631 23.8062 22.8512C23.8062 24.9394 22.1132 26.6321 20.0251 26.6321Z" fill="#053A60"/>
</svg>
